<svg xmlns="http://www.w3.org/2000/svg" xmlns:xlink="http://www.w3.org/1999/xlink"><symbol id="logo-desktop" viewBox="0 0 148.051 72.707">
  <g id="Layer_2">
    <g>
      <path d="M143.165,31.397c-1.481,1.055-3.053,1.942-4.657,2.777c0.037-1.747-0.119-3.465-0.591-5.127 c0.051-0.333,0.102-0.667,0.145-1.002c0.375-3.005,0.657-7.122-2.003-9.224c-0.335-0.265-1.249-0.035-1.922,0.274 c-0.157-0.151-0.322-0.289-0.496-0.415c-0.082-0.242-0.159-0.487-0.229-0.735c-0.035-0.12-0.168-0.188-0.36-0.215 c0.285-0.383,0.263-0.818-0.419-1.092c-0.378-0.152-0.759-0.287-1.143-0.413c-0.067-0.072-0.126-0.096-0.172-0.058 c-0.001,0.001-0.004,0.002-0.006,0.003c-0.938-0.3-1.893-0.533-2.859-0.705c0.138-0.331,0.396-0.813,0.552-1 c0.132-0.157,0.279-0.3,0.429-0.439c0.062-0.057,0.125-0.111,0.188-0.165c0.032-0.027,0.053-0.046,0.069-0.061 c0.02-0.014,0.046-0.034,0.084-0.062c0.38-0.288,0.846-0.865,0.221-1.202c-0.57-0.307-1.507-0.142-2.007,0.238 c-0.863,0.655-1.626,1.379-2.092,2.361c-2.01-0.169-4.05-0.155-6.079-0.078c0.062-0.076,0.112-0.158,0.141-0.25 c0.184-0.585-0.908-0.525-1.188-0.488c-1.562,0.205-3.125,0.407-4.688,0.604c1.367-3.773,3.083-8.578,1.001-12.264 c-1.19-2.106-3.906-2.579-6.098-2.652c-2.436-0.081-4.898,0.461-7.036,1.636c-4.762,2.618-7.11,7.71-8.21,13.138 c-0.497-0.657-2.301-0.425-2.645,0.468c-0.124,0.32-0.229,0.645-0.327,0.972c-0.16,0.174-0.282,0.386-0.345,0.637 c-0.015,0.056-0.027,0.111-0.041,0.167c-0.065,0.002-0.131,0.005-0.196,0.007c0.02-0.104,0.041-0.207,0.064-0.31 c0.146-0.109,0.247-0.232,0.28-0.366c0.574-2.296,1.156-4.588,1.948-6.82c0.269-0.756-2.511-0.399-2.804,0.426 c-0.424,1.193-0.786,2.403-1.12,3.622c-0.165,0.078-0.356,0.187-0.425,0.326c-0.017,0.034-0.031,0.07-0.047,0.104 c-0.107-0.093-0.271-0.151-0.466-0.178c0-0.319,0-0.639,0-0.959c0-0.432-2.823-0.034-2.823,0.757c0,0.522,0,1.046,0,1.568 c-0.167,0.072-0.327,0.158-0.472,0.266c-0.063,0.057-0.127,0.114-0.19,0.172c-0.073,0.071-0.113,0.152-0.12,0.245 c-0.007,0.026-0.013,0.053-0.023,0.078c-0.017,0.022-0.032,0.046-0.052,0.066c-0.126,0.128-0.184,0.335-0.027,0.467 c0.19,0.16,0.508,0.167,0.738,0.159c0.048-0.002,0.097-0.007,0.146-0.011c0,0.156,0,0.312,0,0.468 c-0.226-0.001-0.45-0.003-0.675-0.006l-0.411-0.051c-0.021-0.385-0.676-0.452-1.351-0.328c0.006-0.049,0.007-0.098-0.001-0.148 c-0.101-0.595-0.174-1.192-0.229-1.79c0.237-0.079,0.471-0.18,0.68-0.313c0.159-0.102,0.328-0.224,0.328-0.43 c0-0.064,0-0.13,0-0.194c0-0.18-0.412-0.204-0.499-0.208c-0.195-0.009-0.394,0.009-0.589,0.041 c-0.075-1.305-0.081-2.615-0.081-3.925c0-0.84-2.824-0.315-2.823,0.757c0,1.786,0.009,3.57,0.193,5.343 c-0.087-0.002-0.178,0.001-0.27,0.009c0-0.511,0-1.021,0-1.532c0-1.045-1.297-1.22-2.147-0.809 c0.313-0.262,0.489-0.622,0.37-1.039c-0.403-1.414-0.778-2.827-0.974-4.287c-0.188-1.394-3.017-0.677-2.824,0.756 c0.196,1.46,0.57,2.873,0.975,4.287c0.235,0.828,1.338,0.889,2.104,0.51c-0.227,0.196-0.373,0.452-0.373,0.76 c0,0.21,0,0.42,0,0.63c-0.189-0.098-0.439-0.16-0.77-0.16c-1.057,0-1.671,0.885-1.4,1.477c-0.164-0.027-0.327-0.054-0.491-0.083 c-0.382-1.248-0.686-2.514-0.714-3.83c-0.02-0.942-1.27-1.049-2.108-0.672c-0.008-0.056-0.022-0.111-0.049-0.168 c-0.385-0.804-0.567-1.674-0.78-2.533c-0.332-1.35-3.158-0.601-2.823,0.756c0.157,0.638,0.3,1.281,0.519,1.898 c-0.018,0.005-0.039,0.009-0.056,0.014c-0.3,0.081-0.601,0.205-0.854,0.387c-0.832,0.079-1.828,0.565-1.752,1.208 c0.058,0.478,0.131,0.953,0.209,1.427c-0.546,0.091-1.092,0.177-1.639,0.26c-0.289-0.787-0.499-1.601-0.618-2.443 c-0.131-0.924-1.555-0.854-2.332-0.26c-0.774-2.062-1.796-4.019-3.122-5.761c-2.621-3.439-7.097-4.613-11.242-3.794 c-1.9,0.376-3.735,1.184-5.043,2.646c-1.21,1.353-1.352,3.089-1.17,4.805c0.158,1.493,0.61,4.005,1.584,5.976 c-0.35-0.012-0.709,0.041-0.949,0.139c-0.283,0.117-0.561,0.248-0.833,0.388c-1.939,0.029-3.877,0.019-5.803-0.07 c-4.179-0.194-8.301-0.86-12.497-0.742c-0.923,0.026-1.534,0.719-1.465,1.262c-1.046,0.502-1.733,1.315-2.143,2.287 c-1.732-1.15-3.479-2.266-5.335-3.211c-0.689-0.351-3.3,0.707-2.285,1.224c1.84,0.938,3.561,2.072,5.278,3.216 c0.512,0.341,1.32,0.133,1.842-0.07c0.03-0.012,0.09-0.039,0.165-0.077c-0.306,1.44-0.157,3.067,0.241,4.493 c0.03,0.11,0.093,0.198,0.172,0.27c-0.021,0.338-0.023,0.677-0.007,1.015c-0.001,0.055-0.001,0.109-0.002,0.165 c-0.4,0.189-0.712,0.48-0.76,0.839c-0.188,1.411-0.278,2.82-0.305,4.229c-0.272,0.199-0.462,0.469-0.485,0.798 c-0.233,3.345,0.037,6.652,0.467,9.95c0.185,2.694,0.69,5.344,1.172,7.999c0.058,0.416,0.113,0.832,0.167,1.249 c-0.265,1.133-0.398,2.395-0.237,3.482c-0.881,0.171-1.729,0.866-1.233,1.617c0.765,1.158,1.644,2.018,2.606,2.649 c-0.633-0.103-1.42,0.11-1.871,0.555c-0.818,0.809-1.715,1.531-2.533,2.339c-0.429,0.424-0.314,0.935,0.289,1.078 c0.651,0.155,1.516-0.06,1.997-0.535c0.817-0.808,1.715-1.531,2.533-2.339c0.248-0.245,0.308-0.517,0.204-0.731 c3.21,1.735,7.235,1.27,11.114,0.943c-0.882,1.589-1.542,3.273-2.17,4.997c-0.262,0.719,2.507,0.373,2.801-0.436 c0.61-1.675,1.237-3.343,2.103-4.895c3.741,0.117,7.479,0.122,11.215,0.051c0.149,0.182,0.416,0.305,0.746,0.336 c3.27,0.311,6.489-0.096,9.688-0.699c4.789-0.229,9.577-0.525,14.366-0.809c7.527-0.186,15.056-0.346,22.587-0.32 c0.1,0.109,0.204,0.215,0.314,0.318c0.272,0.256,0.621,0.345,0.979,0.33c0.062,0.009,0.128,0.016,0.199,0.019 c0.714,0.036,1.428,0.087,2.141,0.145c0.156,0.04,0.341,0.059,0.559,0.046c0.002,0,0.004,0,0.005,0 c0.782,0.067,1.563,0.14,2.346,0.208c0.171,0.214,0.497,0.342,0.792,0.361c3.804,0.25,7.612,0.522,11.423,0.703 c0.14,0.229,0.536,0.34,0.82,0.343c7.067,0.06,15.278,2.804,21.558-1.736c0.501-0.362,0.273-0.877-0.264-0.984 c-0.108-0.021-0.217-0.031-0.326-0.034c0.008-0.016,0.018-0.03,0.023-0.045c1.195-2.769,2.174-5.633,2.945-8.552 c0.365-0.198,0.632-0.494,0.646-0.86c0.049-1.189,0.188-2.406,0.371-3.639c0.166-0.884,0.313-1.771,0.441-2.66 c0.387-2.169,0.806-4.367,1.018-6.541c2.28-1.147,4.538-2.335,6.622-3.819C146.562,31.417,144.213,30.651,143.165,31.397z M87.835,16.351c-0.049,0.039-0.094,0.079-0.134,0.123c0.073-0.312,0.149-0.623,0.228-0.934c0.036,0.001,0.073,0.001,0.111,0 C87.972,15.81,87.902,16.081,87.835,16.351z"/>
      <path d="M63.261,12.626c0.127,0.196,0.562,0.217,0.753,0.217c0.377,0.001,0.759-0.083,1.106-0.225 c0.404-0.166,1.101-0.559,0.77-1.07c-0.363-0.562-0.609-1.19-0.975-1.754c-0.127-0.196-0.562-0.217-0.754-0.217 c-0.376-0.001-0.758,0.083-1.105,0.226c-0.404,0.165-1.101,0.558-0.77,1.069C62.649,11.434,62.896,12.063,63.261,12.626z"/>
      <path d="M20.683,10.907c0.216,0.647,1.111,0.647,1.648,0.504c0.472-0.127,1.39-0.616,1.175-1.26 c-0.208-0.624-0.433-1.293-0.893-1.78c-0.479-0.507-1.324-0.417-1.902-0.151c-0.412,0.19-1.177,0.838-0.695,1.349 C20.398,9.974,20.494,10.341,20.683,10.907z"/>
      <path d="M30.66,13.895c0.843,0,3.073-1.276,1.186-1.276C31.003,12.619,28.772,13.895,30.66,13.895z"/>
      <path d="M122.562,12.274c0.346,0.072,0.717,0.032,1.055-0.059c0.321-0.086,0.7-0.234,0.941-0.477 c0.355-0.355,0.728-0.729,0.962-1.178c0.104-0.198,0.174-0.399-0.005-0.587c-0.188-0.197-0.507-0.245-0.763-0.251 c-0.376-0.01-0.761,0.074-1.106,0.22c-0.252,0.106-0.621,0.294-0.756,0.553c-0.098,0.186-0.218,0.353-0.351,0.513 c-0.008,0.009-0.016,0.018-0.023,0.027c-0.011,0.012-0.021,0.023-0.028,0.032c-0.064,0.067-0.13,0.133-0.195,0.199 c-0.158,0.158-0.346,0.365-0.279,0.614C122.077,12.121,122.347,12.229,122.562,12.274z"/>
      <path d="M135.861,17.692c0.631-0.061,1.395-0.246,1.894-0.662c1.319-1.102,2.603-2.248,3.623-3.642 c0.288-0.393-1.049-0.243-1.118-0.23c-0.534,0.099-1.316,0.276-1.661,0.746c-0.949,1.296-2.164,2.349-3.391,3.374 C134.71,17.693,135.649,17.712,135.861,17.692z"/>
      <path d="M146.74,44.769c-1.624,0-3.248,0-4.872,0c-0.616,0-1.475,0.468-1.556,1.139c-0.09,0.739,0.754,0.922,1.304,0.922 c1.624,0,3.248,0,4.871,0c0.617,0,1.475-0.468,1.557-1.139C148.134,44.952,147.29,44.769,146.74,44.769z"/>
      <path d="M57.021,60.784c-0.498,0.08-1.412,0.296-1.639,0.831c-0.538,1.272-0.981,2.571-1.364,3.897 c-0.211,0.733,2.571,0.333,2.798-0.451c0.383-1.327,0.825-2.625,1.363-3.897C58.401,60.637,57.213,60.752,57.021,60.784z"/>
      <path d="M61.602,63.375c-0.347-0.003-0.696,0.063-1.029,0.152c-0.333,0.089-0.67,0.207-0.968,0.383 c-0.141,0.084-0.338,0.2-0.338,0.39c-0.001,0.116-0.007,0.231-0.021,0.346c-0.025,0.103-0.06,0.2-0.125,0.286 c0.004-0.004,0.008-0.009,0.012-0.014c-0.064,0.082-0.108,0.179,0.018,0.253c0.196,0.114,0.502,0.083,0.712,0.062 c0.374-0.037,0.745-0.127,1.099-0.252c0.243-0.085,0.613-0.207,0.795-0.407c0.149-0.164,0.241-0.286,0.284-0.501 c0.035-0.177,0.05-0.349,0.05-0.529C62.09,63.378,61.669,63.376,61.602,63.375z"/>
      <path d="M116.652,67.051c-0.354-0.686-3.043,0.331-2.823,0.757c0.844,1.638,1.939,3.122,2.923,4.677 c0.436,0.689,3.04-0.414,2.823-0.757C118.593,70.174,117.496,68.689,116.652,67.051z"/>
      <path d="M120.744,64.713c-0.294-0.588-1.067-0.563-1.624-0.414c-0.35,0.094-1.485,0.598-1.199,1.17 c0.39,0.78,0.779,1.559,1.169,2.339c0.294,0.588,1.068,0.562,1.624,0.414c0.35-0.094,1.486-0.598,1.199-1.171 C121.523,66.272,121.134,65.493,120.744,64.713z"/>
      <path d="M5.668,43.105c-1.486,0.359-3.006,0.571-4.481,0.975c-0.537,0.146-1.342,0.641-1.16,1.318 c0.181,0.675,1.128,0.709,1.664,0.562c1.476-0.403,2.995-0.615,4.482-0.975c0.541-0.13,1.338-0.651,1.16-1.318 C7.148,42.982,6.209,42.975,5.668,43.105z"/>
    </g>
  </g>
  <g id="Layer_1">
    <g>
      <path d="M43.752,40.106c-0.083-2.707-0.514-5.396-0.479-8.108c0.028-2.194,0.393-4.45-0.363-6.554 c0.047-0.239,0.097-0.477,0.141-0.717c0.195-1.055-3.3-0.497-3.849,0.468c-0.346,0.283-0.523,0.621-0.377,0.965 c0.037,0.087,0.069,0.175,0.102,0.263c-0.662,3.233-1.584,6.364-2.645,9.498c-0.406,1.199-0.896,2.37-1.31,3.565 c-0.587-1.114-1.181-2.214-1.658-3.408c-1.386-3.464-2.636-6.965-4.326-10.299c0.192-1.543-3.232-1.381-3.907,0.032 c-0.816,1.709-0.711,3.434-0.442,5.262c0.303,2.061,0.356,4.086,0.381,6.167c0.048,4.012,0.361,8.016,0.421,12.027 c-0.357,0.397-0.466,0.889-0.092,1.388c0.163,0.217,0.365,0.385,0.576,0.554c0.913,0.73,3.533,0.108,3.528-1.283 c-0.014-4.16-0.314-8.312-0.424-12.471c-0.011-0.407-0.018-0.814-0.024-1.222c0.058,0.146,0.115,0.293,0.173,0.438 c0.646,1.618,1.322,3.191,2.205,4.696c0.876,1.491,1.315,3.092,1.819,4.719c-0.19,0.219-0.305,0.467-0.234,0.715 c-0.04,0.181,0.071,0.294,0.253,0.363c0.645,0.552,1.858,0.277,2.532-0.007c0.29-0.122,0.566-0.263,0.834-0.427 c0.348-0.215,0.891-0.686,0.735-1.17c-0.03-0.093-0.059-0.187-0.088-0.281c0.475-1.281,0.716-2.612,0.975-3.965 c0.275-1.441,0.789-2.805,1.307-4.171c0.053,0.625,0.107,1.249,0.157,1.872c0.206,2.577,0.033,5.118,0.008,7.696 c-0.009,0.854,0.054,1.648,0.221,2.484c0.068,0.345,0.37,1.824,0.283,1.904c-0.617,0.57-0.438,1.268,0.389,1.45 c0.923,0.203,2.1-0.106,2.795-0.749c1.209-1.117,0.638-2.871,0.364-4.28C43.273,45.158,43.826,42.512,43.752,40.106z"/>
      <path d="M52.192,40.788c-0.074-2.007-0.771-3.897-0.781-5.925c-0.011-2.327,0.183-4.635-0.156-6.949 c-0.107-0.732-4.093,0.101-3.953,1.059c0.312,2.129,0.199,4.268,0.161,6.412c-0.037,2.063,0.472,3.934,0.737,5.958 c0.271,2.073-0.085,4.195,0.15,6.271c0.11,0.971,0.758,2.768,0.09,3.612c-0.424,0.537,1.482,0.345,1.568,0.33 c0.775-0.143,1.809-0.395,2.324-1.048c0.659-0.835,0.198-2.448,0.054-3.387C52.066,45.041,52.271,42.885,52.192,40.788z"/>
      <path d="M68.671,37.438c-2.081-2.809-5.943-0.787-8.64-1.554c-1.39-0.396-1.407-2.292-1.403-3.428 c0.004-1.439-0.115-2.757-0.276-4.184c-0.119-1.061-0.024-2.14,0.753-2.93c0.143-0.146,0.866-0.339,0.817-0.342 c0.356-0.062,0.683-0.077,1.077-0.094c1.562-0.067,4.654,0.234,4.056,2.506c-0.269,1.019,3.629,0.435,3.913-0.643 c1.224-4.64-7.352-3.749-9.774-3.106c-2.231,0.592-4.692,1.862-4.819,4.438c-0.062,1.23,0.274,2.401,0.328,3.62 c0.061,1.403-0.2,2.802,0.291,4.155c1.092,3.01,5.57,1.59,7.849,1.761c3.88,0.29,2.722,5.519,2.772,7.955 c0.027,1.3,1.192,3.461,0.213,4.549c-0.601,0.668-2,0.706-2.817,0.774c-0.821,0.069-2.221,0.315-2.768-0.465 c-1.002-1.431,0.093-3.834-0.121-5.474c-0.122-0.933-4.104-0.096-3.953,1.059c0.346,2.651-1.412,6.2,2.424,6.655 c2.464,0.293,5.238-0.162,7.568-0.936c1.207-0.4,2.328-0.951,3.272-1.81c1.045-0.949,0.701-2.369,0.421-3.579 C69.172,43.422,70.593,40.032,68.671,37.438z"/>
      <path d="M86.155,37.248c-0.122-3.812-0.696-7.582-0.711-11.4c-0.009-1.989-4-1.317-3.993,0.346 c0.015,3.641,0.501,7.232,0.688,10.862c0.003,0.074,0.008,0.148,0.012,0.223c-1.967-0.018-3.934,0.179-5.905,0.248 c0.203-4.675-0.617-9.311-0.438-13.983c0.022-0.587-3.909-0.091-3.953,1.059c-0.172,4.516,0.593,8.997,0.457,13.514 c-0.064,2.155-0.247,4.303-0.262,6.46c-0.008,1.105,0.173,2.204,0.332,3.293c0.147,1.008,0.488,2.352,0.183,3.349 c-0.238,0.779,3.594,0.293,3.897-0.701c0.55-1.794-0.224-4.076-0.408-5.892c-0.177-1.74-0.04-3.53,0.084-5.296 c2.048-0.131,4.096-0.3,6.135-0.012c0.091,1.391,0.197,2.779,0.325,4.172c0.106,1.168,0.181,2.334,0.198,3.507 c0.016,1.028,0.143,2.519-0.223,3.492c-0.78,2.075,3.179,1.906,3.757,0.368c0.71-1.887,0.507-4.237,0.386-6.22 C86.565,42.169,86.235,39.717,86.155,37.248z"/>
      <path d="M103.242,41.762c-0.948-2.783-2.395-5.224-3.649-7.868c1.01-1.967,2.036-3.935,2.959-5.942 c0.838-1.824,1.459-3.854,3.107-5.139c0.579-0.451,0.555-0.904-0.258-0.96c-0.883-0.061-2.083,0.194-2.795,0.749 c-1.498,1.168-2.448,2.587-3.229,4.307c-0.94,2.069-1.914,4.101-2.94,6.13c-0.074,0.149-0.15,0.298-0.226,0.448 c-0.494,0.318-0.792,0.769-0.645,1.277c-0.798,1.578-1.614,3.146-2.521,4.653c-0.302-5.584-0.963-11.162-1.161-16.751 c-0.045-1.281-4.007-0.484-3.953,1.059c0.246,6.93,1.23,13.845,1.299,20.775c-0.017,0.017-0.032,0.034-0.049,0.051 c-0.303,0.311-0.191,0.498,0.053,0.606c0.002,1.767-0.06,3.534-0.211,5.303c-0.477,0.752,0.467,1.149,1.094,1.149 c0.033,0,0.065,0,0.098,0c0.746,0,2.649-0.353,2.742-1.376c0.193-2.119,0.254-4.234,0.234-6.349 c1.605-1.731,2.916-3.663,4.093-5.687c0.766,1.494,1.495,3,2.007,4.625c0.868,2.766,2.32,5.308,3.159,8.087 c0.55,1.822,4.497,0.745,3.952-1.059C105.563,47.072,104.177,44.505,103.242,41.762z"/>
      <path d="M126.96,37.085c-0.212-0.84-1.385-0.857-2.292-0.777c-0.013-0.338-0.021-0.677-0.036-1.016 c-0.127-2.686-0.168-5.428-0.396-8.105c-0.211-2.479-1.599-3.368-4.008-3.276c-2.438,0.093-5.277,0.532-7.55,1.416 c-2.632,1.023-4.096,2.961-4.601,5.733c-0.555,3.041,0.242,6.275,0.377,9.331c0.155,3.535,0.066,7.078,0.062,10.614 c0,0.579,3.952,0.031,3.953-1.059c0.003-2.801,0.043-5.602,0-8.402c-0.014-0.826-0.052-1.647-0.104-2.466 c1.382-0.599,3.721,0.013,5.097,0.143c1.117,0.105,2.188-0.167,3.273-0.294c0.021,2.333,0.108,4.678,0.204,7.008 c0.049,1.194,0.481,3.563-0.356,4.552c-0.44,0.521,1.493,0.347,1.568,0.333c0.801-0.147,1.777-0.404,2.324-1.05 c0.958-1.13,0.46-3.824,0.405-5.173c-0.079-1.928-0.103-3.859-0.143-5.789C125.903,38.656,127.177,37.943,126.96,37.085z M112.208,36.933c-0.104-1.257-0.219-2.513-0.306-3.777c-0.161-2.352,0.118-5.634,2.31-7.062c0.587-0.383,1.691-0.317,2.377-0.442 c0.979-0.177,1.974-0.393,2.855,0.192c1.221,0.81,0.92,3.69,0.918,4.913c-0.002,2.024,0.21,4.038,0.313,6.058 c-0.558,0.056-1.122,0.09-1.698,0.077C116.67,36.837,114.393,36.474,112.208,36.933z"/>
      <path d="M48.771,25.176c0.526-0.051,1.055-0.229,1.49-0.529c0.087-0.073,0.173-0.146,0.26-0.219 c0.524-0.338,0.979-0.834,0.734-1.373c-0.509-1.115-0.428-2.251-0.42-3.445c0.007-0.966-0.972-1.257-1.797-1.185 c-0.729,0.064-2.188,0.586-2.194,1.534c-0.007,1.002-0.072,2.034,0.11,3.02c-0.049,0.113-0.075,0.241-0.105,0.358 c-0.056,0.214,0.016,0.424,0.144,0.595c0,0.045,0.002,0.09,0.002,0.135c0.005,0.113,0.011,0.226,0.015,0.338 c0.074,0.235,0.218,0.413,0.433,0.535C47.833,25.176,48.327,25.219,48.771,25.176z"/>
    </g>
  </g>
</symbol><symbol id="logo-footer"><path d="M19.135 21.495c-.083-2.683-.51-5.347-.475-8.035.028-2.174.389-4.41-.36-6.495.047-.237.096-.473.14-.711.193-1.045-3.271-.492-3.813.464-.343.28-.519.615-.375.957.037.086.069.174.102.261-.656 3.204-1.57 6.306-2.621 9.412-.402 1.188-.888 2.349-1.298 3.533-.582-1.104-1.169-2.194-1.643-3.377-1.374-3.433-2.612-6.902-4.287-10.206.19-1.528-3.204-1.368-3.873.032-.809 1.694-.705 3.403-.438 5.214.3 2.042.353 4.05.377 6.111.047 3.976.358 7.943.417 11.919-.354.395-.461.881-.091 1.375.162.216.361.382.571.549.904.724 3.5.107 3.496-1.271-.014-4.123-.312-8.238-.42-12.358a98.054 98.054 0 0 1-.024-1.21l.171.434c.64 1.604 1.31 3.163 2.185 4.654.868 1.478 1.303 3.064 1.803 4.677-.189.217-.303.462-.233.708-.039.18.07.292.251.36.639.548 1.841.274 2.509-.007a6.07 6.07 0 0 0 .826-.424c.345-.212.883-.679.729-1.159l-.087-.279c.47-1.27.709-2.589.965-3.93.272-1.428.782-2.78 1.295-4.133.052.619.106 1.238.156 1.855.204 2.554.033 5.072.007 7.626-.008.847.054 1.633.219 2.461.068.343.367 1.808.281 1.887-.611.564-.433 1.257.385 1.437.915.201 2.081-.105 2.77-.742 1.198-1.106.632-2.845.361-4.241-.452-2.342.095-4.964.022-7.348zM27.499 22.17c-.074-1.988-.765-3.862-.774-5.872-.011-2.305.181-4.593-.155-6.886-.106-.725-4.056.1-3.917 1.05.309 2.11.197 4.229.159 6.354-.037 2.044.468 3.898.73 5.904.269 2.054-.084 4.157.149 6.213.109.962.75 2.743.089 3.58-.42.532 1.469.342 1.553.326.769-.142 1.793-.392 2.304-1.038.653-.828.196-2.426.053-3.357-.316-2.059-.114-4.195-.191-6.274zM43.828 18.851c-2.062-2.784-5.889-.78-8.561-1.54-1.377-.392-1.395-2.271-1.392-3.396.004-1.426-.114-2.732-.273-4.146-.119-1.052-.024-2.121.746-2.904.142-.144.859-.336.81-.339a8.132 8.132 0 0 1 1.067-.093c1.549-.066 4.613.232 4.019 2.483-.266 1.01 3.596.431 3.877-.637 1.213-4.598-7.284-3.714-9.686-3.078-2.21.588-4.648 1.846-4.775 4.399-.061 1.219.273 2.379.325 3.587.061 1.39-.198 2.776.289 4.118 1.082 2.982 5.52 1.576 7.778 1.745 3.845.287 2.697 5.469 2.748 7.883.027 1.288 1.181 3.429.211 4.507-.595.662-1.982.699-2.792.768-.813.068-2.201.312-2.742-.461-.993-1.418.091-3.799-.121-5.425-.121-.924-4.066-.095-3.917 1.05.342 2.627-1.399 6.145 2.402 6.596 2.441.289 5.191-.161 7.5-.928 1.196-.396 2.307-.942 3.243-1.793 1.035-.941.694-2.348.417-3.547-.677-2.918.731-6.279-1.173-8.849zM61.155 18.662c-.122-3.777-.69-7.513-.706-11.297-.008-1.971-3.963-1.305-3.957.343.015 3.608.497 7.167.682 10.764l.013.221c-1.949-.018-3.899.177-5.853.246.201-4.633-.611-9.227-.435-13.857.022-.582-3.874-.09-3.917 1.049-.171 4.475.587 8.915.453 13.392-.064 2.136-.245 4.264-.259 6.402-.007 1.095.171 2.183.329 3.263.146.999.484 2.331.182 3.318-.237.772 3.561.29 3.862-.694.544-1.778-.222-4.039-.405-5.839-.175-1.725-.039-3.499.083-5.248 2.03-.13 4.059-.297 6.08-.012.09 1.378.196 2.754.322 4.134a45.83 45.83 0 0 1 .196 3.475c.015 1.019.142 2.496-.221 3.461-.773 2.057 3.15 1.889 3.723.364.703-1.87.502-4.199.383-6.164-.148-2.443-.477-4.874-.555-7.321zM78.087 23.136c-.939-2.758-2.373-5.177-3.616-7.797 1.001-1.949 2.018-3.898 2.932-5.888.831-1.808 1.446-3.819 3.08-5.092.574-.447.55-.896-.255-.951-.875-.061-2.064.192-2.77.742-1.485 1.158-2.427 2.563-3.201 4.268a160.304 160.304 0 0 1-2.914 6.075l-.224.443c-.49.315-.785.762-.639 1.266-.792 1.563-1.6 3.117-2.499 4.61-.299-5.534-.955-11.061-1.15-16.6-.045-1.27-3.971-.479-3.917 1.049.243 6.868 1.219 13.719 1.286 20.587l-.047.051c-.301.308-.19.494.051.602a60.756 60.756 0 0 1-.209 5.254c-.472.745.463 1.139 1.084 1.139h.096c.739 0 2.626-.35 2.718-1.364.191-2.1.251-4.196.232-6.291 1.59-1.715 2.89-3.63 4.055-5.635.759 1.48 1.482 2.972 1.989 4.582.861 2.741 2.299 5.261 3.131 8.014.544 1.806 4.457.738 3.917-1.049-.829-2.753-2.204-5.297-3.13-8.015zM101.59 18.501c-.21-.832-1.372-.849-2.271-.77-.012-.335-.02-.671-.036-1.006-.125-2.661-.165-5.379-.392-8.032-.209-2.458-1.585-3.337-3.972-3.247-2.416.092-5.229.527-7.482 1.403-2.607 1.014-4.058 2.935-4.559 5.681-.549 3.014.24 6.219.373 9.246.154 3.503.066 7.014.062 10.519 0 .573 3.916.031 3.917-1.049.003-2.776.042-5.551 0-8.327a52.196 52.196 0 0 0-.102-2.444c1.369-.593 3.687.012 5.05.141 1.107.104 2.169-.166 3.244-.292.021 2.312.107 4.635.202 6.944.049 1.184.477 3.53-.354 4.511-.437.516 1.48.343 1.555.33.793-.146 1.761-.401 2.303-1.041.949-1.12.456-3.79.401-5.126-.078-1.91-.102-3.824-.141-5.737 1.154-.147 2.417-.854 2.202-1.704zm-14.618-.15c-.103-1.245-.217-2.49-.303-3.743-.16-2.331.117-5.583 2.29-6.999.58-.379 1.675-.315 2.354-.438.97-.176 1.956-.389 2.829.19 1.21.802.912 3.657.911 4.869-.003 2.005.207 4.001.31 6.003-.552.055-1.111.089-1.683.076-2.286-.053-4.544-.413-6.708.042zM24.108 6.7a3.157 3.157 0 0 0 1.477-.524l.256-.216c.52-.335.972-.827.728-1.361-.504-1.105-.423-2.231-.416-3.414.006-.958-.963-1.246-1.781-1.174-.723.063-2.168.581-2.175 1.52-.006.993-.071 2.016.109 2.992-.047.113-.074.239-.104.355-.055.212.016.42.142.59l.002.134.015.335a.901.901 0 0 0 .429.53c.388.233.878.275 1.318.233z"/></symbol><symbol id="logo-htmlacademy"><path d="M13.62.017L13.472 0 0 1.412v24.661l13.473 8.017 13.43-7.99.042-.025V1.412L13.62.017zm11.399 12.11L13.495 5.334l-.001-.104-.087.05-.088-.056v.109L1.925 12.118V3.147l11.548-1.212L25.02 3.147v8.98zm-11.614-5.34L24.923 13.5l-4.479 2.64-7.093-4.221-.014 1.415 5.904 3.513-.86.507-5.03-2.992-.014 1.415 3.827 2.275-.782.523-3.031-1.787-.014 1.413 1.853 1.091-1.8 1.081-11.356-6.751 11.371-6.835zm-11.48 8.34l11.411 6.791.016 1.044-7.942-4.728-.015 1.416 7.979 4.795.018 1.076-7.973-4.74-.013 1.414 8.021 4.822.046.025 8.143-4.872-.011-5.177 3.415-2.036v10.021L13.472 31.85 1.925 24.979v-9.852z"/></symbol><symbol id="logo-mobile" viewBox="32.458 20.216 85.589 35.034">
  <g>
    <path d="M36.638,46.517c-0.014-3.472-0.262-6.938-0.356-10.409c-0.008-0.34-0.015-0.681-0.02-1.021 c0.049,0.122,0.097,0.243,0.146,0.364c0.54,1.352,1.103,2.663,1.839,3.92c0.731,1.244,1.099,2.58,1.521,3.939 c-0.159,0.182-0.256,0.39-0.196,0.596c-0.033,0.15,0.059,0.245,0.212,0.306c0.537,0.46,1.55,0.231,2.113-0.008 c0.242-0.102,0.474-0.221,0.696-0.355c0.29-0.181,0.744-0.572,0.613-0.977c-0.024-0.079-0.049-0.157-0.072-0.235 c0.396-1.068,0.598-2.179,0.813-3.308c0.23-1.206,0.659-2.345,1.092-3.485c0.043,0.521,0.088,1.044,0.129,1.56 c0.174,2.147,0.028,4.27,0.008,6.422c-0.008,0.713,0.046,1.375,0.184,2.075c0.059,0.287,0.31,1.521,0.235,1.58 c-0.516,0.476-0.366,1.061,0.326,1.211c0.771,0.169,1.753-0.088,2.333-0.625c1.009-0.934,0.531-2.396,0.304-3.572 c-0.385-1.973,0.077-4.181,0.017-6.189c-0.069-2.26-0.43-4.503-0.399-6.769c0.023-1.831,0.328-3.714-0.303-5.471 c0.039-0.2,0.08-0.398,0.117-0.6c0.163-0.879-2.754-0.414-3.212,0.392c-0.29,0.235-0.438,0.519-0.313,0.806 c0.031,0.071,0.057,0.146,0.084,0.219c-0.552,2.699-1.321,5.313-2.207,7.93c-0.339,1.001-0.748,1.977-1.095,2.978 c-0.49-0.933-0.986-1.851-1.384-2.847c-1.155-2.891-2.199-5.813-3.61-8.596c0.16-1.289-2.698-1.153-3.261,0.02 c-0.682,1.426-0.592,2.866-0.369,4.393c0.254,1.721,0.298,3.411,0.32,5.147c0.039,3.347,0.3,6.689,0.351,10.04 c-0.298,0.331-0.389,0.741-0.078,1.158c0.136,0.182,0.306,0.321,0.482,0.46C34.454,48.198,36.643,47.679,36.638,46.517z"/>
    <path d="M54.834,28.145c-0.089-0.613-3.416,0.084-3.3,0.885c0.259,1.776,0.167,3.561,0.136,5.352 c-0.031,1.722,0.394,3.282,0.615,4.971c0.226,1.732-0.071,3.502,0.126,5.235c0.09,0.812,0.632,2.312,0.074,3.018 c-0.354,0.447,1.237,0.285,1.31,0.275c0.646-0.12,1.509-0.331,1.938-0.875c0.552-0.697,0.165-2.042,0.045-2.82 c-0.267-1.734-0.097-3.537-0.162-5.286c-0.061-1.676-0.644-3.254-0.65-4.946C54.957,32.001,55.119,30.077,54.834,28.145z"/>
    <path d="M57.958,34.791c0.91,2.514,4.648,1.327,6.551,1.471c3.238,0.239,2.272,4.607,2.313,6.641 c0.022,1.085,0.995,2.889,0.179,3.798c-0.502,0.556-1.669,0.589-2.352,0.646c-0.687,0.057-1.854,0.261-2.312-0.39 c-0.836-1.194,0.077-3.2-0.102-4.568c-0.103-0.78-3.424-0.08-3.299,0.884c0.29,2.211-1.179,5.175,2.022,5.556 c2.059,0.244,4.372-0.136,6.317-0.783c1.008-0.334,1.943-0.792,2.731-1.509c0.872-0.794,0.585-1.979,0.352-2.987 c-0.569-2.458,0.616-5.289-0.987-7.454c-1.738-2.345-4.962-0.657-7.212-1.297c-1.161-0.33-1.175-1.911-1.17-2.86 c0.002-1.202-0.098-2.302-0.231-3.491c-0.1-0.887-0.021-1.787,0.628-2.447c0.119-0.121,0.723-0.283,0.681-0.28 c0.299-0.051,0.572-0.062,0.9-0.076c1.304-0.056,3.885,0.195,3.386,2.092c-0.226,0.851,3.028,0.363,3.266-0.53 c1.021-3.874-6.138-3.131-8.159-2.593c-1.863,0.494-3.916,1.555-4.023,3.704c-0.052,1.027,0.229,2.006,0.274,3.022 C57.764,32.494,57.546,33.662,57.958,34.791z"/>
    <path d="M72.413,36.661c-0.053,1.799-0.208,3.593-0.22,5.393c-0.006,0.921,0.146,1.842,0.278,2.75 c0.122,0.841,0.407,1.964,0.152,2.796c-0.198,0.646,3,0.242,3.254-0.587c0.458-1.497-0.188-3.402-0.341-4.918 c-0.147-1.451-0.032-2.945,0.072-4.42c1.708-0.11,3.418-0.249,5.119-0.011c0.076,1.163,0.164,2.321,0.272,3.48 c0.088,0.976,0.151,1.948,0.164,2.929c0.015,0.855,0.12,2.099-0.185,2.913c-0.651,1.731,2.655,1.59,3.136,0.30 c0.592-1.577,0.423-3.537,0.323-5.194c-0.13-2.059-0.404-4.106-0.47-6.166c-0.102-3.183-0.58-6.329-0.594-9.51 c-0.007-1.661-3.338-1.099-3.331,0.288c0.012,3.04,0.417,6.037,0.571,9.068c0.005,0.061,0.008,0.121,0.01,0.18 c-1.64-0.016-3.281,0.149-4.929,0.207c0.171-3.902-0.515-7.771-0.364-11.672c0.02-0.492-3.264-0.077-3.3,0.883 C71.887,29.151,72.526,32.891,72.413,36.661z"/>
    <path d="M86.493,42.032c-0.254,0.259-0.159,0.414,0.045,0.506c0.001,1.474-0.05,2.949-0.178,4.424 c-0.396,0.63,0.39,0.96,0.912,0.96c0.028,0,0.055,0,0.082,0c0.622,0,2.209-0.293,2.289-1.148c0.162-1.769,0.211-3.535,0.196-5.299 c1.337-1.446,2.434-3.057,3.416-4.748c0.64,1.248,1.247,2.505,1.676,3.861c0.725,2.31,1.938,4.431,2.637,6.75 c0.459,1.521,3.754,0.621,3.298-0.885c-0.701-2.319-1.856-4.462-2.638-6.75c-0.791-2.322-1.998-4.361-3.046-6.568 c0.845-1.641,1.699-3.283,2.47-4.96c0.698-1.524,1.219-3.216,2.594-4.289c0.483-0.376,0.464-0.755-0.216-0.801 c-0.737-0.054-1.738,0.159-2.334,0.625c-1.25,0.974-2.042,2.158-2.694,3.595c-0.784,1.726-1.598,3.421-2.455,5.117 c-0.061,0.123-0.125,0.248-0.188,0.373c-0.412,0.264-0.66,0.642-0.539,1.064c-0.666,1.316-1.347,2.627-2.104,3.885 c-0.252-4.661-0.803-9.317-0.969-13.983c-0.036-1.068-3.345-0.403-3.297,0.886c0.204,5.785,1.024,11.557,1.083,17.34 C86.52,42.002,86.505,42.018,86.493,42.032z"/>
    <path d="M118.027,35.8c-0.177-0.701-1.155-0.716-1.914-0.648c-0.01-0.281-0.017-0.566-0.029-0.849 c-0.106-2.241-0.139-4.53-0.329-6.765c-0.176-2.069-1.335-2.812-3.346-2.734c-2.035,0.077-4.404,0.443-6.302,1.183 c-2.197,0.853-3.421,2.471-3.841,4.784c-0.464,2.539,0.201,5.238,0.313,7.789c0.13,2.951,0.056,5.909,0.054,8.859 c0,0.484,3.297,0.027,3.297-0.884c0.004-2.338,0.037-4.676,0-7.014c-0.011-0.688-0.043-1.374-0.085-2.057 c1.155-0.499,3.106,0.01,4.255,0.118c0.933,0.089,1.826-0.138,2.732-0.244c0.017,1.946,0.09,3.905,0.17,5.851 c0.042,0.997,0.402,2.975-0.297,3.799c-0.368,0.436,1.249,0.288,1.31,0.28c0.668-0.124,1.482-0.338,1.939-0.87 c0.8-0.942,0.384-3.192,0.338-4.316c-0.065-1.611-0.086-3.223-0.121-4.834C117.144,37.111,118.208,36.515,118.027,35.8z M111.365,35.638c-1.928-0.046-3.828-0.349-5.651,0.036c-0.086-1.051-0.183-2.098-0.255-3.154 c-0.134-1.962,0.099-4.702,1.928-5.896c0.492-0.318,1.413-0.264,1.984-0.368c0.819-0.147,1.647-0.328,2.384,0.16 c1.018,0.676,0.769,3.08,0.766,4.101c-0.002,1.69,0.177,3.37,0.262,5.059C112.317,35.622,111.844,35.648,111.365,35.638z"/>
    <path d="M51.159,24.322c-0.048,0.18,0.013,0.356,0.119,0.497c0,0.039,0.002,0.075,0.002,0.114c0.004,0.094,0.009,0.188,0.013,0.282 c0.062,0.194,0.182,0.343,0.362,0.446c0.325,0.196,0.737,0.232,1.108,0.196c0.439-0.041,0.882-0.191,1.245-0.439 c0.072-0.062,0.143-0.122,0.216-0.183c0.438-0.282,0.818-0.697,0.612-1.146c-0.424-0.932-0.358-1.88-0.35-2.87 c0.005-0.808-0.812-1.051-1.501-0.989c-0.608,0.054-1.827,0.489-1.831,1.279c-0.007,0.836-0.062,1.698,0.092,2.522 C51.206,24.119,51.182,24.225,51.159,24.322z"/>
    <path d="M112.736,53.505c-1.558-0.585-3.283-0.615-4.851-0.787c-1.603-0.17-3.245-0.41-4.884-0.562 c-1.637,0.053-3.31,0.027-4.972,0.129l-4.88,0.268c-6.487,0.289-12.999,0.253-19.517,0.107c-6.517-0.123-13.045-0.477-19.63-0.453 c-3.288,0.008-6.565,0.099-9.862,0.25c-1.632,0.283-3.239,0.501-4.904,0.913c-1.615,0.399-3.145,0.907-4.794,1.048 c1.623,0.362,3.341,0.292,4.962,0.297c1.579,0.01,3.243,0.143,4.872,0.231c3.229-0.172,6.487-0.246,9.733-0.25 c6.487-0.024,13.015,0.329,19.565,0.451c6.548,0.146,13.114,0.186,19.683-0.11l4.907-0.269c1.603-0.071,3.198-0.127,4.829-0.067 c1.628-0.148,3.253-0.33,4.918-0.532c1.664-0.238,3.22-0.627,4.854-0.509l0.074,0.006l0.006-0.055 c0.021-0.178-0.04-0.323-0.04-0.479C112.772,53.251,112.767,53.388,112.736,53.505z"/>
  </g>
</symbol><symbol id="logo-tablet" viewBox="19.137 15.003 112.389 46.087">
  <g id="Layer_2">
    <g>
      <path d="M129.364,56.884c4.394,0.868,0.843-35.858,0.147-38.311c-1.96-6.569-26.677-2.144-32.18-1.717 c-12.723,0.987-25.189-0.96-37.611-0.376c-6.205,0.292-34.854-1.813-37.519,1.986c-5.048,7.208-2.652,25.797-1.278,35.076 c-4.043,0.779,2.309,4.154,3.138,4.897c6.314,2.192,16.358-0.219,23.007,0.396c15.434,1.472,31.797-2.194,47.276-0.955 c4.496,1.144,9.604,1.019,14.224,1.239C111.982,64.691,128.232,56.658,129.364,56.884 C129.264,56.864,129.871,56.984,129.364,56.884z"/>
    </g>
  </g>
  <g id="Layer_1_1_">
    <g>
      <path d="M45.195,39.413c-0.079-2.546-0.484-5.074-0.451-7.624c0.026-2.063,0.37-4.185-0.341-6.164 c0.043-0.225,0.091-0.449,0.132-0.675c0.184-0.992-3.103-0.467-3.62,0.44c-0.325,0.266-0.492,0.584-0.354,0.908 c0.035,0.082,0.065,0.165,0.096,0.247c-0.623,3.041-1.49,5.985-2.487,8.932c-0.382,1.128-0.843,2.229-1.232,3.354 c-0.553-1.049-1.111-2.083-1.56-3.206c-1.303-3.257-2.479-6.55-4.068-9.685c0.181-1.452-3.039-1.299-3.674,0.03 c-0.767,1.607-0.668,3.229-0.416,4.948c0.285,1.938,0.334,3.842,0.358,5.8c0.045,3.771,0.339,7.537,0.396,11.311 c-0.335,0.372-0.438,0.835-0.087,1.305c0.153,0.203,0.344,0.362,0.542,0.521c0.858,0.687,3.323,0.101,3.318-1.207 c-0.013-3.911-0.295-7.815-0.399-11.727c-0.01-0.383-0.017-0.766-0.022-1.149c0.055,0.137,0.108,0.275,0.163,0.411 c0.607,1.522,1.243,3.001,2.073,4.416c0.824,1.401,1.237,2.908,1.711,4.438c-0.179,0.206-0.288,0.439-0.221,0.674 c-0.038,0.169,0.067,0.275,0.238,0.342c0.606,0.519,1.747,0.261,2.381-0.008c0.273-0.114,0.532-0.247,0.784-0.401 c0.327-0.202,0.838-0.645,0.691-1.1c-0.028-0.089-0.056-0.176-0.083-0.265c0.447-1.204,0.674-2.456,0.917-3.728 c0.259-1.356,0.742-2.64,1.229-3.924c0.049,0.587,0.1,1.176,0.147,1.762c0.194,2.422,0.031,4.812,0.008,7.236 c-0.009,0.803,0.05,1.55,0.208,2.337c0.064,0.324,0.348,1.714,0.266,1.79c-0.581,0.535-0.412,1.192,0.366,1.363 c0.868,0.19,1.975-0.101,2.628-0.705c1.137-1.05,0.6-2.699,0.342-4.024C44.745,44.165,45.265,41.677,45.195,39.413z"/>
      <path d="M53.132,40.056c-0.069-1.888-0.725-3.666-0.734-5.573c-0.01-2.188,0.172-4.358-0.146-6.535 c-0.101-0.688-3.849,0.095-3.717,0.996c0.293,2.002,0.187,4.014,0.151,6.029c-0.035,1.941,0.444,3.699,0.694,5.603 c0.254,1.95-0.081,3.945,0.141,5.897c0.103,0.913,0.712,2.603,0.084,3.398c-0.398,0.505,1.394,0.322,1.474,0.31 c0.729-0.136,1.702-0.372,2.186-0.987c0.62-0.784,0.186-2.3,0.051-3.185C53.014,44.054,53.206,42.026,53.132,40.056z"/>
      <path d="M68.629,36.903c-1.957-2.641-5.589-0.739-8.125-1.46c-1.308-0.372-1.323-2.155-1.319-3.224 c0.003-1.353-0.108-2.592-0.26-3.935c-0.112-0.998-0.022-2.013,0.708-2.755c0.135-0.137,0.815-0.318,0.768-0.322 c0.335-0.058,0.643-0.072,1.013-0.088c1.469-0.063,4.376,0.22,3.814,2.356c-0.253,0.958,3.413,0.409,3.68-0.604 c1.15-4.364-6.914-3.526-9.192-2.921c-2.098,0.557-4.412,1.751-4.531,4.174c-0.059,1.156,0.257,2.258,0.309,3.404 c0.057,1.319-0.188,2.635,0.273,3.907c1.027,2.831,5.238,1.495,7.38,1.656c3.65,0.271,2.561,5.19,2.608,7.48 c0.025,1.224,1.121,3.255,0.2,4.278c-0.565,0.627-1.881,0.664-2.649,0.729c-0.772,0.064-2.089,0.296-2.604-0.438 c-0.942-1.345,0.087-3.605-0.114-5.146c-0.115-0.879-3.859-0.091-3.717,0.995c0.325,2.492-1.328,5.83,2.279,6.258 c2.318,0.275,4.926-0.152,7.118-0.881c1.135-0.376,2.188-0.894,3.077-1.701c0.982-0.892,0.659-2.228,0.396-3.365 C69.1,42.531,70.436,39.344,68.629,36.903z"/>
      <path d="M85.07,36.725c-0.114-3.584-0.653-7.129-0.669-10.719c-0.007-1.871-3.762-1.239-3.754,0.325 c0.014,3.424,0.472,6.801,0.646,10.215c0.004,0.068,0.008,0.138,0.012,0.209c-1.85-0.017-3.699,0.169-5.553,0.233 c0.191-4.396-0.58-8.756-0.411-13.149c0.021-0.553-3.677-0.085-3.718,0.995c-0.162,4.248,0.558,8.461,0.43,12.709 c-0.061,2.026-0.232,4.046-0.247,6.074c-0.007,1.039,0.164,2.074,0.312,3.098c0.138,0.947,0.458,2.212,0.172,3.149 c-0.224,0.731,3.379,0.275,3.666-0.659c0.516-1.687-0.211-3.834-0.383-5.541c-0.167-1.636-0.039-3.319,0.078-4.98 c1.925-0.123,3.852-0.281,5.77-0.011c0.084,1.308,0.186,2.613,0.305,3.924c0.101,1.099,0.171,2.194,0.187,3.298 c0.016,0.966,0.135,2.367-0.21,3.282c-0.733,1.953,2.99,1.792,3.533,0.347c0.667-1.775,0.477-3.984,0.363-5.85 C85.455,41.354,85.145,39.047,85.07,36.725z"/>
      <path d="M101.139,40.971c-0.892-2.617-2.252-4.913-3.431-7.399c0.95-1.85,1.915-3.7,2.782-5.588 c0.788-1.715,1.373-3.624,2.922-4.833c0.545-0.424,0.522-0.85-0.243-0.902c-0.83-0.058-1.958,0.182-2.629,0.704 c-1.408,1.099-2.301,2.433-3.035,4.05c-0.885,1.946-1.801,3.856-2.765,5.765c-0.069,0.14-0.141,0.28-0.213,0.421 c-0.465,0.3-0.744,0.723-0.606,1.201c-0.75,1.484-1.518,2.959-2.371,4.375c-0.283-5.25-0.905-10.496-1.093-15.752 c-0.041-1.205-3.768-0.455-3.715,0.996c0.23,6.517,1.155,13.021,1.221,19.536c-0.017,0.017-0.031,0.033-0.047,0.048 c-0.285,0.293-0.179,0.469,0.051,0.571c0.002,1.66-0.057,3.322-0.199,4.985c-0.448,0.709,0.439,1.081,1.029,1.081 c0.031,0,0.061,0,0.092,0c0.701,0,2.49-0.331,2.579-1.294c0.182-1.992,0.237-3.981,0.221-5.971 c1.508-1.627,2.741-3.444,3.849-5.348c0.72,1.405,1.405,2.821,1.887,4.35c0.816,2.602,2.182,4.991,2.971,7.604 c0.518,1.713,4.229,0.701,3.717-0.996C103.321,45.964,102.02,43.551,101.139,40.971z"/>
      <path d="M123.443,36.573c-0.199-0.791-1.302-0.807-2.156-0.731c-0.012-0.318-0.02-0.637-0.033-0.956 c-0.12-2.525-0.158-5.104-0.371-7.622c-0.198-2.331-1.505-3.167-3.77-3.08c-2.293,0.087-4.962,0.5-7.101,1.332 c-2.475,0.962-3.852,2.784-4.326,5.391c-0.522,2.86,0.227,5.901,0.354,8.775c0.146,3.324,0.062,6.655,0.059,9.98 c0,0.545,3.717,0.03,3.717-0.996c0.004-2.633,0.041-5.268,0-7.9c-0.013-0.777-0.049-1.549-0.097-2.318 c1.3-0.563,3.499,0.011,4.792,0.133c1.052,0.1,2.059-0.155,3.079-0.275c0.02,2.193,0.101,4.4,0.191,6.591 c0.047,1.122,0.453,3.351-0.335,4.279c-0.414,0.491,1.405,0.326,1.475,0.314c0.753-0.139,1.671-0.381,2.186-0.988 c0.901-1.062,0.433-3.597,0.381-4.863c-0.074-1.814-0.097-3.63-0.135-5.443C122.448,38.051,123.647,37.38,123.443,36.573z M109.571,36.43c-0.099-1.183-0.207-2.364-0.288-3.552c-0.15-2.212,0.111-5.298,2.172-6.642c0.553-0.36,1.59-0.298,2.235-0.416 c0.922-0.166,1.856-0.369,2.685,0.181c1.148,0.762,0.865,3.47,0.863,4.62c-0.002,1.904,0.198,3.797,0.295,5.698 c-0.524,0.052-1.056,0.084-1.597,0.073C113.767,36.339,111.625,35.998,109.571,36.43z"/>
      <path d="M49.915,25.373c0.495-0.047,0.992-0.215,1.401-0.497c0.082-0.068,0.162-0.138,0.244-0.206 c0.493-0.318,0.92-0.785,0.69-1.291c-0.479-1.049-0.403-2.117-0.395-3.241c0.006-0.908-0.914-1.182-1.689-1.114 c-0.686,0.061-2.058,0.551-2.063,1.443c-0.007,0.942-0.068,1.913,0.104,2.84c-0.046,0.106-0.071,0.226-0.099,0.336 c-0.053,0.201,0.015,0.399,0.135,0.56c0,0.042,0.002,0.085,0.002,0.127c0.004,0.106,0.01,0.212,0.014,0.318 c0.07,0.221,0.205,0.388,0.407,0.503C49.033,25.373,49.498,25.414,49.915,25.373z"/>
    </g>
  </g>
</symbol><symbol id="icon-cart" viewBox="264.205 370.961 20.294 18.849"><path d="M283.75 378.19h-3.151l-3.407-6.814a.75.75 0 1 0-1.341.671l3.071 6.143h-9.138l3.072-6.143a.75.75 0 0 0-1.341-.671l-3.407 6.814h-3.151a.75.75 0 0 0 0 1.5h.157l.855 2.991a.737.737 0 0 0-.316.595c0 .396.309.71.697.739l1.656 5.795h12.697l1.656-5.795a.745.745 0 0 0 .698-.739.738.738 0 0 0-.316-.596l.854-2.991h.157a.75.75 0 1 0-.002-1.499zm-4.181 10.121h-10.433l-1.224-4.284h12.881l-1.224 4.284zm1.653-5.785h-13.739l-.81-2.836h15.359l-.81 2.836z"/></symbol><symbol id="icon-fb" viewBox="56.519 49.996 14.962 27.718"><path d="M68.181 55.188c1.026.029 1.993 0 2.681-.3.391-.818.556-1.854.619-2.989-.19-.015-.062-.337-.207-.399-.029-.202-.278-.195-.309-.398-.277-.165-.457-.422-.723-.598-.727-.162-1.44-.335-2.164-.499-.849.044-1.895-.103-2.58.1-2.619-.04-3.997 1.12-5.259 2.392-.023.078-.003.197-.105.199-.574 1.587-.125 3.621-.204 5.581.099.436.107.958.204 1.395-.998.296-2.212.387-3.402.499-.317.324-.178 1.089-.206 1.693.085.583.278 1.06.413 1.595.211.193.596.396.825.498.065.029.071.082.103.1.506.268 1.451.008 2.268.1-.136 1.978.256 3.915 0 5.68.007.327.295.382.208.798-.001.963-.067 1.99.208 2.69-.287.455-.497.982-.415 1.794.122.016.114.157.105.299-.075.47.643.175.515.698.162.456-.428.184-.413.498v.896c.53.285 1.462.182 2.268.199.908-.419 2.188-.479 2.785-1.196.459.235.916-.014 1.238-.199-.018-.315.273-.333.205-.698-.004-.328-.173-.496-.103-.896v-2.89c-.206-2.293-.048-4.938-.309-7.176.888-.105 1.917-.075 2.578-.398.357-.451.377-1.23.516-1.895.177-.226.221-.583.206-.996.19-.213.068-.729.104-1.096-.141-.595-.168-1.3-.825-1.39-.884-.235-2.043.595-2.991.299.049-1.134-.293-2.342 0-3.388.746-.181 1.446-.4 2.166-.602zm-3.818 4.783c.117.254.254.486.414.698.079.022.203.003.205.101a10.319 10.319 0 0 0 3.096-.299c0 .998-.271 1.733-.518 2.492-.662.045-1.467.3-1.958.198-.276.165-.372.506-.62.698-.049.441.142.495 0 .797-.201.137-.055.611-.205.796v1.496c.085.281-.146.258-.104.497v3.488c-.085.281.146.258.104.498v2.989c.063.271-.132.791.103.896-.07.364-.412-.021-.824.1-.528.122-.926.369-1.548.4.117-.353.32-.622.311-1.097.049-.381-.365-.312-.516-.49.193-.644.562-1.117.722-1.793.197-.515.714-1.298.31-1.794-.522-.105-.521.293-.826.398-.022.077-.002.196-.103.199-.023.077-.003.196-.103.199.01.12-.151.062 0 0 .022-.078.002-.197.103-.199.023-.077.002-.197.103-.199v-.299c.368-.575.67-1.214.826-1.993.191-.28.283-.656.412-.997.156-.262.34-.869.104-1.195-.517.033-.796.295-.93.697-.32-.189.161-.434.104-.697.138-.231.169-.566.309-.797.202-.413.564-1.304 0-1.596-.438-.023-.612.207-.723.498-.214.191-.43.383-.516.698-.373-.07-.143-.727-.206-1.097-.067-.52.122-.899 0-1.195-.56-.799-2.026-.105-3.197-.299-.108-.307-.222-.984-.104-1.195 1.045-.088 2.479.201 3.197-.199.024-.078.003-.197.104-.199.094-.723-.271-1-.515-1.396.232-.806.04-2.02.104-2.989.233-.141.328-.414.515-.598.112-.955.673-1.476.722-2.49-.273.001-.607-.055-.619.199-.302-.114-.382.479-.515.199-.112-.541.246-.626.309-.997.599-.418 1.212-.82 1.856-1.195 1.741-.244 4.648-.449 6.086.198.051.616-.287.854-.207 1.496h-1.546c-1.092.24-1.987.672-2.991.997-.24.066-.276.331-.516.398-.036.396-.225.646-.311.996-.079 1.431.133 2.589.102 3.978z"/></symbol><symbol id="icon-feature-ball" viewBox="0 0 34.373 34.373">
  <g>
    <path d="M0.286,14.069c-0.382,2.073-0.384,4.211,0.008,6.301l4.121-3.21L0.286,14.069z"/>
    <path d="M24.403,1.585C19.62-0.623,13.959-0.559,9.149,1.992l7.513,5.625L24.403,1.585z"/>
    <path d="M33.901,13.175l-4.811,3.748l4.936,3.695C34.522,18.173,34.489,15.63,33.901,13.175z"/>
    <path d="M9.209,32.414c4.844,2.534,10.724,2.65,15.73,0.113l-8.096-6.062L9.209,32.414z"/>
    <path d="M7.914,14.433L1.681,9.767c-0.32,0.669-0.595,1.356-0.825,2.056l5.308,3.974L7.914,14.433z"/>
    <path d="M18.593,25.102l8.336,6.242c0.277-0.191,0.551-0.391,0.82-0.601c0.318-0.248,0.625-0.505,0.92-0.771l-8.326-6.234 L18.593,25.102z"/>
    <path d="M11.413,11.707L4.002,6.158C3.54,6.709,3.117,7.285,2.733,7.881l6.931,5.189L11.413,11.707z"/>
    <path d="M22.093,22.375l8.092,6.059c0.471-0.544,0.904-1.112,1.297-1.701l-7.639-5.721L22.093,22.375z"/>
    <path d="M14.913,8.98L7.196,3.203C7.003,3.341,6.812,3.482,6.623,3.629C6.227,3.938,5.849,4.261,5.487,4.597l7.676,5.747 L14.913,8.98z"/>
    <path d="M25.592,19.649l6.972,5.221c0.33-0.662,0.615-1.341,0.855-2.033l-6.077-4.55L25.592,19.649z"/>
    <path d="M26.448,2.706L0.88,22.626c0.233,0.698,0.513,1.386,0.839,2.059l26.52-20.663C27.667,3.541,27.068,3.102,26.448,2.706z"/>
    <path d="M30.743,6.624c-0.301-0.386-0.614-0.754-0.939-1.106L2.786,26.567c0.262,0.402,0.542,0.797,0.843,1.183 c0.142,0.183,0.288,0.359,0.436,0.534L31.155,7.176C31.021,6.99,30.886,6.806,30.743,6.624z"/>
    <path d="M32.298,8.999L5.552,29.838c0.544,0.501,1.114,0.962,1.708,1.382l25.962-20.228C32.959,10.314,32.651,9.648,32.298,8.999z"/>
  </g>
</symbol><symbol id="icon-feature-flower" viewBox="8.014 4.35 31.972 37.301">
  <path d="M24,41.65c8.827,0,15.986-7.159,15.986-15.986C31.158,25.664,24,32.822,24,41.65z M12.641,20.78 c0,2.451,1.989,4.441,4.44,4.441c0.932,0,1.803-0.294,2.513-0.782l-0.036,0.337c0,2.451,1.99,4.441,4.441,4.441 s4.44-1.99,4.44-4.441l-0.036-0.337c0.719,0.497,1.582,0.782,2.514,0.782c2.451,0,4.44-1.99,4.44-4.441 c0-1.768-1.038-3.286-2.54-3.997c1.492-0.71,2.54-2.229,2.54-3.997c0-2.451-1.989-4.44-4.44-4.44c-0.932,0-1.803,0.293-2.514,0.781 L28.44,8.79c0-2.451-1.989-4.44-4.44-4.44s-4.441,1.99-4.441,4.44l0.036,0.337c-0.719-0.497-1.581-0.781-2.513-0.781 c-2.451,0-4.44,1.99-4.44,4.44c0,1.768,1.039,3.286,2.54,3.997C13.68,17.494,12.641,19.012,12.641,20.78z M24,12.343 c2.451,0,4.44,1.989,4.44,4.44c0,2.451-1.989,4.44-4.44,4.44s-4.441-1.99-4.441-4.44C19.559,14.332,21.549,12.343,24,12.343z  M8.014,25.664c0,8.827,7.158,15.986,15.986,15.986C24,32.822,16.842,25.664,8.014,25.664z"/>
</symbol><symbol id="icon-feature-gift" viewBox="239.665 239.757 32.666 32.486">
  <path d="M242.56,272.243h12.504v-13.91H242.56V272.243z M270.742,248.623h-7.335 c0.521-0.267,0.984-0.549,1.396-0.845c1.588-1.133,2.424-2.57,2.42-3.999c0.002-1.169-0.556-2.202-1.359-2.901 c-0.805-0.704-1.869-1.119-3.016-1.121c-1.22-0.001-2.352,0.421-3.32,1.069c-1.459,0.979-2.606,2.451-3.424,4.067 c-0.039,0.079-0.078,0.157-0.115,0.236c-0.299-0.623-0.647-1.226-1.041-1.792c-0.691-0.985-1.523-1.86-2.497-2.511 c-0.97-0.646-2.103-1.069-3.322-1.069c-1.213,0.004-2.323,0.514-3.155,1.295c-0.828,0.783-1.41,1.885-1.412,3.135 c-0.002,0.73,0.211,1.494,0.649,2.188c0.552,0.872,1.424,1.628,2.633,2.248h-6.588c-0.878,0-1.591,0.712-1.591,1.59v5.897h15.396 v-7.488h1.873v7.488h15.396v-5.897C272.333,249.334,271.621,248.623,270.742,248.623 M248.38,246.284 c-0.622-0.391-1-0.785-1.22-1.135c-0.22-0.354-0.294-0.662-0.296-0.963c-0.004-0.504,0.248-1.042,0.691-1.461 c0.437-0.415,1.028-0.667,1.562-0.667h0.013c0.685,0,1.366,0.231,2.046,0.683c1.018,0.671,1.975,1.85,2.645,3.187 c0.342,0.676,0.609,1.39,0.789,2.087C251.528,247.694,249.532,247.013,248.38,246.284 M258.917,244.657 c0.557-0.797,1.21-1.466,1.887-1.916c0.68-0.451,1.362-0.683,2.047-0.683h0.006c0.574,0,1.117,0.22,1.494,0.55 c0.377,0.336,0.571,0.739,0.573,1.171c-0.004,0.512-0.272,1.259-1.467,2.132c-1.138,0.825-3.101,1.673-6.127,2.265 C257.62,246.974,258.177,245.704,258.917,244.657 M256.937,272.243h12.506v-13.91h-12.506V272.243z"/>
</symbol><symbol id="icon-feature-heart" viewBox="47.475 50.071 33.05 27.857">
  <path d="M80.525,58.808c0-4.825-3.912-8.736-8.736-8.736c-3.405,0-6.348,1.951-7.789,4.793 c-1.441-2.842-4.384-4.793-7.789-4.793c-4.825,0-8.736,3.911-8.736,8.736c0,9.127,14.657,19.121,16.525,19.121 C65.869,77.929,80.525,67.979,80.525,58.808z"/>
</symbol><symbol id="icon-feature-money" viewBox="46.212 56.834 46.575 27.332">
  <path d="M88.882,56.834H50.116c-2.156,0-3.904,1.749-3.904,3.905v19.521c0,2.156,1.748,3.905,3.904,3.905h38.766 c2.156,0,3.905-1.749,3.905-3.905V60.739C92.787,58.583,91.038,56.834,88.882,56.834z M49.235,81.784V59.551h40.202v22.233H49.235z"/>
  <path d="M53.14,77.88h32.395V63.456H53.14V77.88z M69.5,65.354c2.936,0,5.315,2.38,5.315,5.314c0,2.936-2.379,5.314-5.315,5.314 s-5.314-2.379-5.314-5.314C64.185,67.733,66.564,65.354,69.5,65.354z"/>
</symbol><symbol id="icon-feature-rocket" viewBox="612.532 500.386 54.156 23.183">
  <g>
    <path d="M652.844,506.098c-3.647-0.971-7.839-1.667-12.359-1.666c-2.891,0.001-5.457,0.243-7.71,0.623l-6.784-4.668l-13.456,0.005 l5.811,6.184h8.447c-4.58,1.598-6.759,3.515-6.759,3.515l0.002,3.777c0,0,2.313,1.912,6.931,3.518l-8.623-0.005l-5.811,6.188 l13.455,0.002l6.816-4.692c2.261,0.398,4.822,0.647,7.681,0.648c4.522-0.001,8.712-0.697,12.36-1.667 c-1.176-1.775-1.915-3.743-1.918-5.877C650.93,509.842,651.665,507.871,652.844,506.098z"/>
    <path d="M656.267,507.132c-1.284,1.605-1.969,3.25-1.965,4.84c-0.007,1.597,0.677,3.238,1.968,4.847 c6.399-2.162,10.419-4.841,10.419-4.841S662.67,509.298,656.267,507.132z"/>
  </g>
</symbol><symbol id="icon-flag" viewBox="-11.34 -28.346 46.68 81.691">
  <g id="miu">
    <g id="Artboard-1" transform="translate(-755.000000, -443.000000)">
      <g id="slice" transform="translate(215.000000, 119.000000)">
      </g>
      <g id="editor-flag-triangle-notification-glyph">
        <path d="M751.439,418.545v38.9l38.9-19.451L751.439,418.545z M743.66,496.346v-81.691h3.805v81.691H743.66z"/>
      </g>
    </g>
  </g>
  <g>
    <rect x="-11.34" y="-28.346" width="3.805" height="81.691"/>
  </g>
</symbol><symbol id="icon-insta" viewBox="53.115 53.19 21.769 21.334"><path d="M74.881 65.336c-.013-2.395-.344-4.788-.303-7.135a37.854 37.854 0 0 0-.152-2.278c-.105-.3-.111-.699-.152-1.062-.26-.17-.222-.64-.456-.835-.423-.233-1.201-.114-1.744-.22-.657-.026-1.254-.115-1.899-.153-1.936-.101-3.973-.076-5.996-.076-2.001 0-3.954-.145-5.695-.379h-2.202c-.097.004-.105.098-.227.076-.599.034-1.077.188-1.595.303-.21.119-.421.235-.683.304-.136.192-.513.145-.607.379-.186.212.185.451 0 .607v.911c.173.13.027.58.075.835v.987c-.017 1.281.134 2.397.076 3.72.467 2.762.374 6.537.076 9.413.155.579.363 1.105.455 1.746.256.479.335 1.133.683 1.52.502.206 1.233.186 1.898.229.383.098.667.293 1.14.3 2.843-.21 5.496-.154 8.427-.229 2.704.24 5.802.188 8.275-.228.195-.134.128-.529.228-.76-.056-.385.207-.449.228-.759.131-2.395.164-4.789.15-7.216zm-12.982-6.225c.757-.153 1.48-.341 2.429-.304.71.076 1.287.283 1.897.456.116.184-.243.547.153.684v.076c.059.017.149.002.151.076.445.035.794.167 1.063.379.45.055.536.476 1.138.3-.091.213-.084.524-.075.835.324 1.183.475 2.81.303 4.252-.164.163-.215.442-.303.683-.311.322-.481.785-.836 1.062-.095.236-.25.408-.454.533-.116.213-.206.452-.457.53-.298.163-.577.011-.834-.076-.446.162-.904.312-1.215.607-.816-.096-1.648-.175-2.43-.304-.242-.139-.487-.273-.835-.305a1.997 1.997 0 0 0-.836-.455c-.101-.127-.337-.118-.455-.229-.198-.029-.229-.227-.456-.229-.118-.412-.443-.618-.532-1.062-.226-.331-.308-.805-.455-1.215-.043-1.434.091-2.692.379-3.796.346-.591.779-1.094 1.138-1.67.249.021.365-.09.38-.304.306.053.434-.072.684-.075.257.008.269-.309.458-.449zm-1.67-2.733c-.117-.263-.066-.691-.075-1.062-.007-.285.278-.279.304-.532-.003-.074-.093-.059-.152-.076.126-.146.701-.097.834 0 .132.537-.354.455-.531.684.011.167.322.032.456.076.029.854-.059 1.496 0 2.202h-.456c-.007.234.229.226.456.228-.059.286.092.363.075.607-.226.153-.716.042-1.062.075-.103-.594.235-1.375.151-2.202zm-.683-1.594c.088-.013.134.016.151.076.179.253.01.683-.076.911-.173-.179-.026-.682-.075-.987zm.152 1.822c-.132-.069-.168-.237-.152-.456.132.071.167.238.152.456zm0 1.367c-.058.139-.082-.045-.076-.152.058-.139.081.045.076.152zm-.152.228c.175-.024.084.219.228.227-.009.193-.283.179-.38.077.039-.112.113-.193.152-.304zm-2.354-1.216c.006-.108.013-.214-.076-.228-.073-.733.13-1.415 0-1.973.25-.155.769-.042 1.139-.077v1.139c-.088.064-.203.101-.379.077-.054.28.324.131.379.304.008.853-.056 1.777.152 2.429-.565-.059-.906.107-1.442.076.097-.612-.019-1.435.531-1.594-.012-.141-.257-.047-.304-.153zm-.531 0c-.204.021-.217-.534-.077-.607.328.006.249.501.077.607zm-.152.988c.077-.312.034-.304.075-.683.228.013.26.77-.075.683zm.228-2.05c-.263.054-.273-.266-.153-.38.263-.053.272.267.153.38zm0-1.139c.033.159-.052.201-.076.304-.176.023-.084-.219-.229-.229.025-.102.191-.062.305-.075zm-.228 3.721c.148-.031.11.345-.076.227a.363.363 0 0 0 .076-.227zm-.684-3.721c.029.259-.438.32-.379 0h.379zm-.987.076c-.034.219-.326.179-.379.379-.214-.17.084-.468.379-.379zm-.455.759c.226-.205.451-.41.684-.607-.021-.123.071-.131.076-.228h.229c.102.381-.261.296-.305.531.021.122-.072.131-.075.227.02.335.121.588.075.988-.27.008-.276.28-.607.227.022-.428-.135-.674-.077-1.138zm.076 3.265V57.29c.195-.185.396-.364.607-.532.295.489.179 1.392.455 1.897-.275.157-.75.111-1.062.229zM72.68 69.968c-.109.954-.158 1.968-.379 2.809-2.89.123-6.02.005-8.883.153-.199.045-.273-.031-.229-.229-.253 0-.258.247-.531.229.201-.336.438-.898.151-1.291-.797.013-.797.821-1.138 1.291-.686-.053-1.137.127-1.823.075.18-.705.75-1.021.911-1.745-.395-.55-.989.138-1.214.455-.204.48-.557.81-.76 1.29H57.8c.238-.469.489-.926.759-1.366.171-.512.625-.741.683-1.367-.157-.28-.42-.029-.683 0-.123.182-.272.335-.38.531-.232.376-.501.714-.684 1.14-.181.208-.335.003-.53.227-.389.271-.581.736-.988.987-.174-.06.039-.356.153-.38.045-.181-.096-.55.075-.607.063-.366.212-.647.379-.91.119-.742.521-1.199.684-1.898-.559.099-.674.643-.988.987-.212.445-.542.772-.683 1.291-.174-.131-.028-.58-.076-.836.122-.586.298-1.119.38-1.746.133-.22.173-.535.228-.834.168-.209.046-.61-.077-.761-.226.027-.374.133-.455.304-.192-.032-.193.506-.304.304-.045-2.587-.451-4.812-.456-7.438.026-.331-.183-.424-.228-.685 1.629.028 3.121.091 4.783.229-.089.139-.199.257-.304.379-.144.07-.226.173-.378.304-.604 1.653-.975 3.984-.607 6.15.229.58.589 1.029.986 1.441.907.485 1.635 1.149 2.506 1.671 1.701.361 3.84.369 5.541 0 .236-.12.484-.226.685-.38 1.364-1.242 2.753-2.459 2.961-4.859v-1.367c-.197-1.598-.688-2.905-1.747-3.644.331-.22 1.099.043 1.67.076.223.013.447.014.684 0 .408-.024.928-.055 1.443 0 .144.187.113.544.228.76-.062 1.684-.192 3.3-.152 5.087.103.454.127.986.229 1.441-.091.973-.237 1.89-.457 2.732zm.379-11.16c-.639-.12-1.232-.284-1.897-.379.072-.333.799-.01.987-.228.385-.223.295-.92.304-1.51.032-.348.114-.644.076-1.063-.401-.951-1.783-.421-2.886-.455-.225.718-.47 1.8-.304 2.657.169.49 1.024.292 1.519.456-.14.332-.688.057-.987.076-.296-.083-.707-.052-.986-.151-2.285.078-4.284.004-6.529.151.117-1.248.063-2.465-.076-3.645h3.112c-.344.364-.912.507-1.29.835-.44.244-.861.505-1.139.911.249.134.535-.245.759-.379.355-.074.479-.381.835-.455.423-.438 1.096-.625 1.67-.912.378-.022.697.013.987.077 1.283.007 2.456.126 3.796.076.614.145 1.45.069 1.974.304.107.298.231.579.305.911.008.986-.149 1.816-.23 2.723zm-5.845-3.72c.11-.047-.009-.092 0 0zm0 0c-.529.154-1.019.348-1.367.682.484-.198 1.059-.306 1.367-.682zm1.062.607c.111-.047-.007-.091 0 0zm-1.746.911c.727-.158 1.181-.591 1.746-.911-.437.019-.592.32-.987.379-.215.217-.6.26-.759.532zm-.683-.835c-.111.047.007.092 0 0zm-.683.607c.11-.046-.008-.092 0 0zm-.075.076c.063.014.07-.03.075-.076-.064-.014-.072.03-.075.076zm-.077.076c.064.014.072-.03.077-.076-.067-.013-.072.029-.077.076zm-.834.608c.346-.134.613-.348.834-.607a2.018 2.018 0 0 0-.834.607zm2.276.987c.533-.049.749-.416 1.215-.531.284-.298.784-.381.987-.76-.56.023-.766.399-1.216.531-.284.297-.751.413-.986.76zm-2.276-.987c-.317-.074-.016.227 0 0zm-.533.379c.021.021.115-.037.076-.077-.021-.02-.116.038-.076.077zm2.809.608c-.11.047.007.091 0 0zm-1.14 1.821c-.223-.231-.676-.233-.986-.379-.697-.038-1.223.093-1.746.229-.304.151-.607.304-.91.454-.266.166-.444.417-.76.532-.205.225-.352.51-.684.607-.004.223-.173.281-.304.379-.089.115-.094.312-.227.381-.007.12.036.29-.076.303.108 1.512.291 2.948.683 4.177.287.623.975.846 1.442 1.29.589.297 1.328.444 2.126.531.277-.052.553-.105.911-.076a5.088 5.088 0 0 0 2.81-1.441c.1-.281.252-.508.455-.684-.254-.671.293-1.098.455-1.59.002-1.344-.201-2.48-.607-3.415-.256-.579-.92-.751-1.366-1.139-.059-.018-.15-.003-.151-.077-.269-.136-.733-.239-1.065-.082zm-3.415 4.327c-.113-.063-.109-.244-.152-.379.256-.078.118.237.152.379zm.076.305c.041-.117.079-.006.076.075-.04.118-.079.005-.076-.075zm.456-2.051c.015-.086.075-.042.075 0-.014.087-.075.043-.075 0zm1.67-2.125c-.203.258.041.576.077.836-.305-.039-.574-.887-.077-.836zm.379 3.948c-.04-.038.055-.097.076-.076.04.038-.054.097-.076.076zm.759 2.884c.034-.109.066.008.152 0-.018.097-.15.077-.152 0zm2.201-2.581c-.233-.057-.145.208-.379.152.069-.159.118-.338.229-.455.134.019.172.13.15.303zm-1.137-3.796c.211.119.441.217.606.381.085.219.243.363.38.529.058.778.179 1.492.151 2.354-.257.099-.438.271-.683.381-.78-.006-1.358-.212-1.897-.456-.171-.259-.355-.505-.532-.759v-1.062c.17-.185.319-.391.456-.607.228-.127.508-.201.454-.607-.038-.062-.078-.124-.075-.229.158.045.245.159.379.229.323.017.41-.2.761-.154z"/></symbol><symbol id="icon-interior" viewBox="-259.404 -19.675 40.219 62.411"><path d="M-244.227 18.283c-.286.966-.245 2.191.027 3.639.494 2.635 1.687 6.041 2.358 9.67h5.062c.696-3.641 1.949-7.05 2.471-9.683.287-1.445.33-2.66.041-3.617-.275-.899-.89-1.618-2.021-2.303h-5.997c-1.075.679-1.674 1.391-1.941 2.294zM-232.395 38.278h-13.799c-1.293 0-2.299.976-2.299 2.229v2.229h18.397v-2.229c0-1.253-1.006-2.229-2.299-2.229zM-225.262-17.446h-11.732c0-1.244-1.015-2.229-2.3-2.229-1.283 0-2.3.985-2.3 2.229h-11.737l-6.073 25.517c.794-.461 1.589-.992 2.632-.992 1.359 0 2.243.818 2.924 1.375.682.557 1.162.849 1.447.849.292.001.769-.287 1.451-.836.681-.548 1.564-1.358 2.915-1.358 1.349 0 2.237.806 2.919 1.354.684.549 1.161.84 1.451.84.146 0 .338-.073.58-.214.242-.141.53-.353.872-.626.512-.411 1.139-.967 1.99-1.218.284-.085.593-.136.93-.136 1.347 0 2.238.805 2.92 1.354.683.548 1.159.84 1.451.84.287-.002.766-.296 1.445-.85.684-.554 1.571-1.367 2.925-1.367 1.356 0 2.239.817 2.919 1.371.342.276.631.489.872.631.24.143.431.214.575.214.288 0 .762-.293 1.442-.854.68-.559 1.567-1.384 2.929-1.384 1.044 0 1.839.533 2.632.997l-6.079-25.507zM-235.881 33.82h-6.864c-.657 0-1.15.479-1.15 1.115 0 .635.493 1.113 1.15 1.113h6.9c.655 0 1.15-.479 1.15-1.113 0-.636-.495-1.115-1.15-1.115h-.036zM-239.295 9.336c-.146 0-.338.074-.58.213-.157.094-.37.261-.57.41v3.731h2.299V9.959c-.505-.378-.908-.623-1.149-.623z"/></symbol><symbol id="icon-left-arrow" viewBox="0 0 50 26.003">
  <polygon points="50,11.002 7.659,11.002 15.833,2.828 13.005,0 0,12.998 0.003,13.001 0,13.005 13.005,26.003 15.833,23.175 7.661,15.002 50,15.002 "/>
</symbol><symbol id="icon-mail"><path d="M28 5H4a4 4 0 0 0-4 4v13a4 4 0 0 0 4 4h24a4 4 0 0 0 4-4V9a4 4 0 0 0-4-4zM2 10.25l6.999 5.25L2 20.75v-10.5zM30 22c0 1.104-.898 2-2 2H4c-1.103 0-2-.896-2-2l7.832-5.875 4.368 3.277a3 3 0 0 0 3.599 0l4.369-3.277L30 22zm0-1.25l-7-5.25 7-5.25v10.5zm-12.801-2.148c-.35.263-.763.4-1.199.4s-.851-.139-1.2-.4L10.665 15.5l-.833-.625L2 9.001V9c0-1.103.897-2 2-2h24c1.102 0 2 .897 2 2l-12.801 9.602z"/></symbol><symbol id="icon-map-pin" viewBox="0 0 66 100.801">
  <path d="M56.334,9.228c-12.892-12.305-33.773-12.305-46.667,0c-12.891,12.297-12.891,32.248,0,44.542 c0,0,23.318,21.832,23.318,47.031c0-25.199,23.343-47.031,23.343-47.031C69.225,41.476,69.225,21.525,56.334,9.228z"/>
  <path d="M47.036,45.522c-0.636-3.277,0.13-6.947,0.027-10.284c-0.115-3.755-0.713-7.485-0.665-11.246 c0.039-3.044,0.545-6.173-0.503-9.091c0.065-0.332,0.134-0.662,0.195-0.995c0.271-1.463-4.577-0.689-5.338,0.649 c-0.479,0.393-0.726,0.861-0.523,1.339c0.051,0.121,0.097,0.243,0.142,0.365c-0.917,4.485-2.197,8.827-3.668,13.174 c-0.563,1.663-1.244,3.288-1.817,4.946c-0.814-1.545-1.638-3.071-2.3-4.728c-1.922-4.805-3.656-9.661-6-14.285 c0.266-2.14-4.484-1.916-5.421,0.044c-1.132,2.371-0.986,4.763-0.613,7.299c0.42,2.858,0.494,5.668,0.528,8.554 c0.066,5.566,0.502,11.119,0.584,16.684c-0.496,0.552-0.646,1.233-0.127,1.924c0.226,0.302,0.505,0.535,0.799,0.769 c1.265,1.013,4.899,0.15,4.893-1.779c-0.02-5.771-0.437-11.531-0.589-17.299c-0.015-0.565-0.025-1.129-0.034-1.694 c0.08,0.203,0.159,0.406,0.24,0.607c0.896,2.245,1.833,4.427,3.059,6.514c1.214,2.068,1.824,4.289,2.523,6.547 c-0.265,0.303-0.423,0.647-0.326,0.991c-0.055,0.251,0.099,0.409,0.352,0.504c0.894,0.766,2.578,0.383,3.513-0.01 c0.4-0.168,0.785-0.364,1.155-0.593c0.483-0.297,1.236-0.95,1.021-1.622c-0.041-0.13-0.081-0.26-0.121-0.391 c0.657-1.776,0.992-3.625,1.352-5.5c0.381-2,1.095-3.892,1.812-5.786c0.073,0.867,0.149,1.732,0.219,2.597 c0.285,3.575,0.046,7.099,0.011,10.674c-0.013,1.186,0.074,2.287,0.306,3.445c0.096,0.479,0.514,2.53,0.394,2.642 c-0.855,0.79-0.606,1.759,0.539,2.011c1.279,0.281,2.912-0.148,3.877-1.039C48.207,49.911,47.414,47.479,47.036,45.522z"/>
</symbol><symbol id="icon-menu-close" viewBox="0 0 20.514 20.512">
  <polygon points="20.513,1.414 19.099,0 10.256,8.842 1.414,0 0,1.414 8.842,10.256 0,19.098 1.414,20.512 10.256,11.67 19.099,20.512 20.513,19.098 11.671,10.256 "/>
</symbol><symbol id="icon-menu-open" viewBox="0 0 19.958 14">
  <rect width="19.958" height="2"/>
  <rect y="6" width="19.958" height="2"/>
  <rect y="12" width="19.958" height="2"/>
</symbol><symbol id="icon-phone"><path d="M17.321 24.333h-1.115c-4.904-.58-8.497-2.857-11.11-5.772C2.473 15.637.402 11.875 0 6.817V5.459c.091-.921.544-1.55 1.067-2.086.65-.666 1.63-1.522 2.522-1.553.659-.022 1.78.451 2.232 1.066.388.53.595 1.59.775 2.378.185.797.6 1.95.485 2.717-.176 1.196-1.764 1.703-2.231 2.572 1.551 3.721 4.089 6.456 7.472 8.345.847-.465 1.595-1.864 2.767-1.892.428-.012.972.209 1.406.34.477.143.891.326 1.311.484.705.266 1.957.621 2.378 1.213.433.61.681 1.608.581 2.231-.194 1.234-2.227 2.603-3.444 3.059zM12.529 1.528c5.949 0 10.771 4.822 10.771 10.771h1.529C24.829 5.507 19.323 0 12.529 0v1.528z"/><path d="M12.529 9.327v1.552a1.42 1.42 0 0 1 1.421 1.42h1.553a2.973 2.973 0 0 0-2.974-2.972zM12.529 6.246a6.054 6.054 0 0 1 6.056 6.054h1.588a7.642 7.642 0 0 0-7.644-7.641v1.587z"/></symbol><symbol id="icon-play" viewBox="247.3 382.56 100.678 76.891">
  <g>
    <g>
      <path d="M344.255,400.708c0,0-0.92-7.008-3.785-10.078c-3.632-4.041-7.674-4.066-9.541-4.297 c-13.326-1.023-33.303-1.023-33.303-1.023h-0.051c0,0-19.978,0-33.304,1.023c-1.867,0.23-5.908,0.256-9.54,4.297 c-2.84,3.096-3.786,10.078-3.786,10.078s-0.896,8.211-0.896,16.422v7.699c0,8.21,0.947,16.421,0.947,16.421 s0.921,7.009,3.785,10.078c3.632,4.041,8.364,3.913,10.487,4.349c7.622,0.767,32.356,1.022,32.356,1.022 s20.003-0.025,33.329-1.048c1.867-0.23,5.908-0.256,9.54-4.298c2.84-3.069,3.786-10.078,3.786-10.078s0.946-8.21,0.946-16.421 v-7.699C345.202,408.919,344.255,400.708,344.255,400.708z"/>
      <path d="M297.614,459.449h-0.016c-1.015-0.011-24.946-0.266-32.604-1.037l-0.14-0.014l-0.137-0.028 c-0.271-0.056-0.668-0.107-1.126-0.167c-2.503-0.328-7.159-0.938-10.839-5.019c-3.354-3.616-4.377-10.771-4.483-11.576 l-0.005-0.043c-0.039-0.342-0.965-8.463-0.965-16.736v-7.699c0-8.266,0.875-16.378,0.912-16.72l0.009-0.071 c0.108-0.802,1.155-7.928,4.474-11.557c3.996-4.439,8.531-4.899,10.712-5.121c0.192-0.02,0.37-0.037,0.529-0.058l0.126-0.013 c13.277-1.019,33.312-1.031,33.514-1.031h0.051c0.201,0,20.236,0.013,33.514,1.031l0.126,0.013 c0.159,0.021,0.337,0.038,0.529,0.058c2.179,0.221,6.71,0.682,10.704,5.112c3.354,3.616,4.377,10.771,4.483,11.577l0.005,0.043 c0.039,0.342,0.965,8.459,0.99,16.753v7.708c0,8.273-0.926,16.395-0.965,16.736l-0.007,0.053 c-0.108,0.805-1.156,7.953-4.478,11.562c-3.994,4.435-8.527,4.896-10.707,5.117c-0.193,0.02-0.371,0.037-0.53,0.057l-0.126,0.013 c-13.276,1.02-33.334,1.057-33.535,1.058L297.614,459.449L297.614,459.449z M265.67,452.952 c7.477,0.729,31.216,0.989,31.968,0.997c0.657-0.001,20.135-0.049,33.047-1.036c0.178-0.021,0.371-0.041,0.58-0.062 c1.836-0.186,4.608-0.468,7.186-3.335l0.026-0.029c1.825-1.974,2.853-6.928,3.075-8.552c0.059-0.514,0.926-8.358,0.926-16.08 v-7.699c-0.023-7.76-0.896-15.627-0.951-16.109c-0.32-2.382-1.434-6.789-3.066-8.539l-0.035-0.038 c-2.577-2.868-5.351-3.149-7.186-3.336c-0.209-0.021-0.402-0.041-0.58-0.062c-13.066-0.998-32.834-1.011-33.033-1.011h-0.051 c-0.198,0-19.967,0.013-33.033,1.011c-0.177,0.021-0.371,0.041-0.58,0.062c-1.835,0.187-4.607,0.468-7.186,3.336l-0.019,0.021 c-1.828,1.993-2.855,6.924-3.082,8.552c-0.062,0.591-0.875,8.399-0.875,16.089v7.699c0,7.749,0.871,15.598,0.926,16.083 c0.32,2.381,1.433,6.789,3.066,8.539l0.035,0.039c2.322,2.584,5.303,2.975,7.479,3.259 C264.788,452.812,265.246,452.872,265.67,452.952z"/>
    </g>
  </g>
  <g>
    <polygon points="285.733,403.138 285.733,438.846 315.48,420.992 	"/>
  </g>
</symbol><symbol id="icon-right-arrow" viewBox="0 0 50 26.003">
  <polygon points="0,11.002 42.341,11.002 34.166,2.828 36.995,0 50,12.998 49.996,13.001 50,13.005 36.995,26.003 34.166,23.175 42.339,15.002 0,15.002 "/>
</symbol><symbol id="icon-search" viewBox="-0.8 -0.8 17.6 17.6">
  <path d="M16.47,14.93l-3.415-3.415C14.02,10.226,14.6,8.634,14.6,6.899c0-4.253-3.447-7.699-7.7-7.699 S-0.8,2.646-0.8,6.899s3.446,7.7,7.699,7.7c1.734,0,3.326-0.58,4.613-1.546l3.417,3.416c0.203,0.202,0.418,0.33,0.771,0.33 c0.607,0,1.1-0.492,1.1-1.1C16.8,15.459,16.739,15.2,16.47,14.93z M1.399,6.899c0-3.038,2.462-5.5,5.5-5.5s5.5,2.462,5.5,5.5 s-2.462,5.5-5.5,5.5S1.399,9.938,1.399,6.899z"/>
</symbol><symbol id="icon-tick" viewBox="0 0 32.666 22.742">
  <polygon points="32.666,1.414 31.252,0 11.338,19.914 1.414,9.989 0,11.403 9.924,21.328 9.924,21.328 11.338,22.742 11.338,22.742 11.339,22.742 12.753,21.328 12.752,21.328 "/>
</symbol><symbol id="icon-toy" viewBox="226.001 226.19 60 59.62">
  <path d="M226.001,269.871l27.438,15.934v-23.346l-27.438-15.94V269.871z M277.347,238.627v2.453 c0,1.817-3.458,3.29-7.73,3.29c-4.266,0-7.727-1.473-7.727-3.29v-4.059h0.024c0.26,1.714,3.604,3.073,7.702,3.073 c4.272,0,7.729-1.474,7.729-3.285c0-1.819-3.457-3.289-7.729-3.289c-0.339,0-0.675,0.01-1.002,0.03l-4.975-2.888v3.086 c0,1.817-3.454,3.29-7.723,3.29c-2.683,0-5.045-0.583-6.433-1.467c-0.196-0.203-0.439-0.401-0.732-0.586 c-0.363-0.381-0.565-0.797-0.565-1.236v-2.986l-4.807,2.792c-0.347-0.017-0.696-0.033-1.054-0.033c-4.267,0-7.727,1.469-7.727,3.289 c0,1.811,3.46,3.285,7.727,3.285c4.099,0,7.446-1.358,7.705-3.073h0.022v4.059c0,1.817-3.455,3.29-7.727,3.29 c-4.267,0-7.727-1.473-7.727-3.29v-2.42l-5.952,3.452l27.531,15.986l27.351-15.882L277.347,238.627z M263.703,248.793 c0,1.817-3.46,3.287-7.727,3.287c-4.269,0-7.729-1.47-7.729-3.287v-4.059h0.024c0.26,1.715,3.603,3.076,7.705,3.076 c4.101,0,7.443-1.361,7.705-3.076h0.021V248.793L263.703,248.793z M258.558,262.666v23.144L286,269.871v-23.144L258.558,262.666z  M255.917,232.762c4.269,0,7.723-1.47,7.723-3.286c0-1.814-3.454-3.287-7.723-3.287c-4.27,0-7.729,1.472-7.729,3.287 C248.187,231.292,251.647,232.762,255.917,232.762"/>
</symbol><symbol id="icon-twitter" viewBox="52.253 53.771 23.494 20.168"><path d="M75.706 57.855c-.227-.366-.909-.277-1.407-.371h-1.112c.142-.353.343-.646.52-.963.056-.438.254-.734.223-1.26.129-.167.176-.417.296-.593.104-.144.242-.477.074-.667-.051-.221-.295-.249-.593-.222a.515.515 0 0 0-.222.148c-.448.433-.778 1.014-1.261 1.408-.009.008-.062 0-.074 0-.087.005-.033.046-.075.074-.146.098-.257.152-.369.223-.284.176-.547.445-.891.519-.529-.211-1.156-.326-1.852-.37-1.157.102-2.303.215-3.038.741-.911.35-1.477 1.042-2.149 1.63-.049.32-.342.398-.37.741-.005.045-.012.088-.073.074.043.241-.051.345-.074.519-.001.133.199.431 0 .52-.822-.12-1.485-.63-2.149-.964-.718-.36-1.468-.604-2.074-1.111-.716-.322-1.26-.816-1.778-1.334-.208-.312-.542-.496-.667-.89-.379-.164-.175-.912-.741-.889-.315-.043-.345.199-.444.37-.07.227-.361.232-.371.519-.004.046-.011.088-.074.075-.17 1.089-.527 1.992-.519 3.26.129.415.35.738.593 1.038-.418.051-.716.222-.89.519-.06 1.073.378 1.647.742 2.297.134.384.352.685.593.963.017.229.206.288.296.445.019.105.123.125.149.223-.04.105.289.18.073.221-.413.131-1.016.07-1.259.371-.109.279-.109.833 0 1.111.034.237.282.262.296.519.499.417 1.082.747 1.631 1.112.574.166 1.211.271 1.852.37-.102.343-.338.551-.593.741-.78.381-1.849.474-2.742.74-.555.038-.956.23-1.556.223-.333.127-.854.075-1.112.223-.122.068-.102.096-.222.221-.134.412.111.74.444.89-.005.253.219.276.371.371.089.183.254.29.445.37.544.468 1.268.759 1.927 1.112.83.183 1.648.376 2.52.519.896.116 1.901.124 2.816.222h.963c.511.132 1.23.054 1.853.074.095-.102.322-.073.519-.074.522-.269 1.196-.385 1.631-.74.574-.241.989-.642 1.557-.89.866-.765 1.937-1.324 2.519-2.37.205-.189.351-.438.445-.74.265-.156.385-.454.593-.667.404-.41.706-.924 1.037-1.4.319-.496.576-1.054.89-1.556-.01-.405.306-.484.296-.89.193-.226.177-.662.371-.88-.033-.255.029-.415.074-.594.047-1.281-.047-2.422-.297-3.407.588-.155 1.181-.302 1.631-.593.52-.206.993-.603.808-1.281zm-3.408 4.076c-.153.859-.615 1.41-1.038 2.001.059.379-.104.538-.073.889a4.303 4.303 0 0 0-.371 1.037c-.203.267-.332.606-.519.89-.366.548-.777 1.051-1.186 1.557-.378.56-.912.965-1.334 1.481-.42.493-.942.885-1.407 1.334-.474.17-.89.396-1.26.667a5.06 5.06 0 0 0-.667.296c-.177.146-.499.145-.668.29-1.086.147-2.3.17-3.555.148-1.031-.105-2.115-.159-3.039-.371-.922-.189-1.511-.712-2.297-1.037.153-.242.634-.154.963-.222.031-.166.394-.003.444-.149.257.06.285-.109.52-.07.563-.201 1.23-.302 1.705-.593.282-.138.406-.434.667-.593.033-.189.104-.341.222-.444.047-.275.201-.441.148-.815.111-.21.299-.343.296-.667-.074-.147-.128-.316-.296-.371-.026-.196-.377-.067-.444-.222-.255.032-.416-.029-.593-.075-.154-.043-.487.092-.519-.073-.842-.023-1.3-.43-1.853-.74.431-.262 1.032-.353 1.333-.742.516-.076 1.058-.129 1.112-.666 0-.717-.771-.661-1.333-.815-.773-.66-1.194-1.672-1.779-2.52.238-.157.564-.226.741-.444.454.058.54-.251.667-.52.019-.488-.333-.605-.593-.815a3.49 3.49 0 0 1-.667-.74c-.003-.818-.021-1.652.074-2.372.063-.014.07.029.074.074.227.441.559.775.815 1.186.532.357.925.853 1.556 1.112.452.413 1.108.621 1.557 1.038.601.263 1.158.57 1.704.889.669.194 1.056.673 2.001.593.198-.098.394-.199.593-.297.258-.456-.059-1.079.147-1.63.255-.659.797-1.031 1.26-1.481.29-.155.555-.335.815-.519.347-.098.675-.216.964-.37a6.223 6.223 0 0 0 1.037-.148h1.26c.244.052.475.119.74.148.209.137.38.313.666.371.789.693 1.271 1.696 1.409 3.039-.122.484.053.873.001 1.481zm.296-5.632c-.129.34-.23.707-.593.815-.017-.105-.122-.125-.147-.222-.012-.209.209-.186.296-.296.162-.085.245-.248.444-.297-.007-.09.108-.046 0 0zm-5.484 3.038c.163.135.284.31.519.371.101.221.314.327.594.37.047-.15.346-.049.37-.222.174-.023.166-.229.296-.297-.018-.55-.129-1.006-.37-1.333-.758-.423-1.676.039-1.409 1.111z"/></symbol><symbol id="icon-video"><path d="M26 15l6-4v16l-6-4v-8zm-2 0v8a4 4 0 0 1-4 4H4a4 4 0 0 1-4-4v-8a4 4 0 0 1 4-4h10a2 2 0 0 1 2-2V7H5a1 1 0 1 1 0-2h12a1 1 0 0 1 1 1v3a2 2 0 0 1 2 2 4 4 0 0 1 4 4zm-12 0H4v8h8v-8zm8 1a1 1 0 0 0-1-1h-4a1 1 0 1 0 0 2h4a1 1 0 0 0 1-1z"/></symbol></svg>